<?xml version="1.0" encoding="iso-8859-1"?>
<!-- Generator: Adobe Illustrator 19.0.0, SVG Export Plug-In . SVG Version: 6.00 Build 0)  -->
<svg version="1.1" id="Capa_1" xmlns="http://www.w3.org/2000/svg" xmlns:xlink="http://www.w3.org/1999/xlink" x="0px" y="0px"
	 viewBox="0 0 162.524 162.524" style="enable-background:new 0 0 162.524 162.524;" xml:space="preserve">
<g>
	<path style="fill:#010002;" d="M81.264,76.48c-32.883,0-56.685-43.416-56.685-72.679C24.58,1.7,26.28,0,28.381,0h105.762
		c2.101,0,3.802,1.7,3.802,3.802C137.945,33.065,114.143,76.48,81.264,76.48z M32.313,7.603
		c1.897,27.993,24.114,61.273,48.951,61.273c24.834,0,47.054-33.28,48.947-61.273H32.313z"/>
	<path style="fill:#010002;" d="M81.264,162.183c-2.101,0-3.802-1.7-3.802-3.802V73.347c0-2.101,1.7-3.802,3.802-3.802
		c2.101,0,3.802,1.7,3.802,3.802v85.034C85.066,160.482,83.365,162.183,81.264,162.183z"/>
	<path style="fill:#010002;" d="M118.572,162.524H43.956c-2.101,0-3.802-1.7-3.802-3.802s1.7-3.802,3.802-3.802h74.617
		c2.101,0,3.802,1.7,3.802,3.802S120.674,162.524,118.572,162.524z"/>
</g>
<g>
</g>
<g>
</g>
<g>
</g>
<g>
</g>
<g>
</g>
<g>
</g>
<g>
</g>
<g>
</g>
<g>
</g>
<g>
</g>
<g>
</g>
<g>
</g>
<g>
</g>
<g>
</g>
<g>
</g>
</svg>
