<?xml version="1.0" encoding="iso-8859-1"?>
<!-- Generator: Adobe Illustrator 17.1.0, SVG Export Plug-In . SVG Version: 6.00 Build 0)  -->
<!DOCTYPE svg PUBLIC "-//W3C//DTD SVG 1.1//EN" "http://www.w3.org/Graphics/SVG/1.1/DTD/svg11.dtd">
<svg version="1.1" id="Capa_1" xmlns="http://www.w3.org/2000/svg" xmlns:xlink="http://www.w3.org/1999/xlink" x="0px" y="0px"
	 viewBox="0 0 209.703 209.703" style="enable-background:new 0 0 209.703 209.703;" xml:space="preserve">
<path d="M60.073,134.652c0-31.457-14.074-64.712-14.673-66.112c-0.63-1.472-2.077-2.427-3.678-2.427H18.351
	c-1.601,0-3.048,0.955-3.678,2.427C14.074,69.94,0,103.195,0,134.652c0,29.063,2.139,41.233,2.5,43.079l1.621,15.401
	c0.215,2.035,1.932,3.581,3.979,3.581h43.908c2.047,0,3.764-1.546,3.979-3.581l1.64-15.581c0.003-0.033-0.003-0.066,0-0.1
	C58.104,174.867,60.073,162.538,60.073,134.652z M30.054,98.388c9.172,0,16.92,14.88,16.92,32.492
	c0,17.613-7.748,32.493-16.92,32.493s-16.92-14.88-16.92-32.493C13.134,113.268,20.882,98.388,30.054,98.388z M48.406,188.712
	H11.701l-0.798-7.581h38.301L48.406,188.712z M105.501,42.495V16.991c0-2.209-1.791-4-4-4H86.473c-2.209,0-4,1.791-4,4v25.504
	C76.33,46.344,72.234,53.17,72.234,60.938v131.774c0,2.209,1.791,4,4,4h35.505c2.209,0,4-1.791,4-4V60.938
	C115.739,53.17,111.644,46.344,105.501,42.495z M90.473,20.991h7.028v18.482c-1.145-0.187-2.317-0.288-3.514-0.288
	c-1.197,0-2.37,0.101-3.515,0.288V20.991z M208.84,100.825c-0.759-0.959-1.914-1.518-3.137-1.518h-78.899
	c-1.223,0-2.378,0.559-3.137,1.518s-1.037,2.212-0.756,3.401l15.988,67.719v20.767c0,2.209,1.791,4,4,4h46.708c2.209,0,4-1.791,4-4
	v-20.767l15.988-67.719C209.877,103.037,209.599,101.784,208.84,100.825z M185.607,188.712h-38.708v-13.235h38.708V188.712z"/>
<g>
</g>
<g>
</g>
<g>
</g>
<g>
</g>
<g>
</g>
<g>
</g>
<g>
</g>
<g>
</g>
<g>
</g>
<g>
</g>
<g>
</g>
<g>
</g>
<g>
</g>
<g>
</g>
<g>
</g>
</svg>
